<svg width="28" height="28" viewBox="0 0 28 28" fill="none" xmlns="http://www.w3.org/2000/svg">
<path d="M22.9694 11.6691V23.7379C22.9694 24.0825 22.9015 24.4237 22.7697 24.742C22.6378 25.0603 22.4446 25.3495 22.2009 25.5932C21.9573 25.8368 21.6681 26.03 21.3498 26.1619C21.0315 26.2937 20.6903 26.3616 20.3457 26.3616H4.60376C3.90793 26.3616 3.24059 26.0852 2.74856 25.5932C2.25652 25.1011 1.9801 24.4338 1.9801 23.7379V7.99598C1.9801 7.30014 2.25652 6.6328 2.74856 6.14077C3.24059 5.64874 3.90793 5.37231 4.60376 5.37231H15.589" stroke="#FFCC29" stroke-width="2.46933" stroke-linecap="round" stroke-linejoin="round"/>
<path d="M27.6339 0.787823C27.5352 0.679422 27.4156 0.592148 27.2822 0.531277C27.1489 0.470405 27.0046 0.437199 26.858 0.433665C26.7115 0.430131 26.5657 0.456342 26.4296 0.510716C26.2935 0.565089 26.1698 0.646495 26.066 0.750015L25.2308 1.58112C25.1296 1.68241 25.0727 1.81973 25.0727 1.96292C25.0727 2.10611 25.1296 2.24344 25.2308 2.34472L25.9965 3.10899C26.0467 3.15941 26.1063 3.19942 26.172 3.22672C26.2377 3.25402 26.3082 3.26808 26.3793 3.26808C26.4505 3.26808 26.5209 3.25402 26.5866 3.22672C26.6523 3.19942 26.712 3.15941 26.7622 3.10899L27.5765 2.29881C27.9883 1.88764 28.0268 1.21789 27.6339 0.787823ZM23.5421 3.269L11.3534 15.4352C11.2795 15.5088 11.2258 15.6002 11.1974 15.7005L10.6336 17.3796C10.6201 17.4252 10.6192 17.4736 10.6309 17.5196C10.6426 17.5657 10.6665 17.6077 10.7001 17.6413C10.7337 17.6749 10.7757 17.6988 10.8218 17.7105C10.8678 17.7222 10.9162 17.7213 10.9618 17.7078L12.6397 17.144C12.74 17.1157 12.8314 17.062 12.905 16.9881L25.0721 4.79889C25.1847 4.68513 25.2478 4.53156 25.2478 4.37152C25.2478 4.21149 25.1847 4.05791 25.0721 3.94415L24.4003 3.269C24.2864 3.15542 24.1321 3.09163 23.9712 3.09163C23.8104 3.09163 23.656 3.15542 23.5421 3.269Z" fill="#FFCC29"/>
</svg>
